<svg id="Layer_1" data-name="Layer 1" xmlns="http://www.w3.org/2000/svg" viewBox="0 0 1080 1080"><defs><style>.cls-1{fill:#66482e;}</style></defs><title>chat icon</title><path class="cls-1" d="M105.67,810.65A225.27,225.27,0,0,1,37,800.15a29,29,0,0,1,1.07-55.5,236.37,236.37,0,0,0,50.58-21.57c17.85-10,27.89-21.22,33.55-30.77-48-53.43-74.26-120.07-74.26-189,0-81,35.36-157.05,99.58-214.12,63.62-56.54,148.07-87.67,237.8-87.67s174.18,31.14,237.8,87.67c64.21,57.06,99.58,133.11,99.58,214.12s-35.36,157.05-99.58,214.12C559.47,774,475,805.15,385.3,805.15a371.23,371.23,0,0,1-151.32-32,220.75,220.75,0,0,1-74.82,31.57A247.92,247.92,0,0,1,105.67,810.65Zm-36.53-39c21.48,4.09,49.55,5.55,82.35-1.69,34.95-7.71,58.75-23,69.82-31.48l8.71-6.65,9.86,4.79c44.28,21.53,94.56,32.91,145.41,32.91,166.41,0,301.79-119.42,301.79-266.21S551.71,237.14,385.3,237.14,83.5,356.57,83.5,503.35c0,63.52,25.81,125,72.67,173.21l7.82,8-3.87,10.52c-6.07,16.48-20.38,40.09-54.06,59A293.09,293.09,0,0,1,69.15,771.67Z"/><path class="cls-1" d="M359.65,433.36H264.38a17.64,17.64,0,1,0,0,35.28h95.27a17.64,17.64,0,0,0,0-35.28Z"/><path class="cls-1" d="M483.15,521.57H264.38a17.64,17.64,0,1,0,0,35.28H483.15a17.64,17.64,0,1,0,0-35.28Z"/><path class="cls-1" d="M1042.86,890.93a236.33,236.33,0,0,1-50.58-21.57c-17.84-10-27.89-21.22-33.55-30.77,48-53.43,74.26-120.07,74.26-189,0-81-35.36-157.05-99.58-214.12-63.62-56.54-148.07-87.67-237.8-87.67-7.33,0-14.63.23-21.88.64a287.73,287.73,0,0,1,20.05,35l1.83,0c166.41,0,301.79,119.42,301.79,266.21,0,63.52-25.81,125-72.67,173.21l-7.82,8,3.87,10.52c6.07,16.48,20.38,40.09,54.06,59a293.1,293.1,0,0,0,36.9,17.56c-21.48,4.1-49.55,5.55-82.35-1.69-34.95-7.71-58.75-23-69.82-31.48l-8.71-6.65L841,882.94c-44.28,21.53-94.56,32.91-145.41,32.91-103.23,0-194.5-46-248.94-115.89a377.57,377.57,0,0,1-40.82,4.55,311.32,311.32,0,0,0,52,59.25c63.62,56.54,148.07,87.67,237.8,87.67a371.23,371.23,0,0,0,151.32-32A220.75,220.75,0,0,0,921.75,951a247.85,247.85,0,0,0,53.49,5.93,225.32,225.32,0,0,0,68.69-10.51,29,29,0,0,0-1.07-55.5Z"/></svg>