<?xml version="1.0" encoding="utf-8"?>
<!-- Generator: Adobe Illustrator 21.0.0, SVG Export Plug-In . SVG Version: 6.00 Build 0)  -->
<svg version="1.1" id="Layer_1" xmlns="http://www.w3.org/2000/svg" xmlns:xlink="http://www.w3.org/1999/xlink" x="0px" y="0px"
	 viewBox="0 0 1080 1080" style="enable-background:new 0 0 1080 1080;" xml:space="preserve">
<style type="text/css">
	.st0{fill:#66482E;}
</style>
<title>GC Icon</title>
<g>
	<path class="st0" d="M278.2,811.7c-4,0-7.5-3.4-11.4-7.3c-3.7-3.7-7.8-7.8-8.1-12.4l-0.6-0.7l0.6-3.3
		c0.9-4.9,23.2-120.5,107.7-203.3c44.3-43.4,76-67,109.5-92c29.8-22.2,60.7-45.2,102.4-84c48.5-45.1,94.9-104.7,135.9-157.3
		c32.5-41.7,60.5-77.8,81.2-95.1c64.9-54.2,122.9-60.4,172.3-18.5c2.1,1.1,3.9,2.6,5.5,4.4l0.2,0.2c0.3,0.3,0.5,0.7,0.8,1
		c0.1,0.1,0.2,0.3,0.3,0.4c0.1,0.1,0.4,0.4,0.7,0.6c0.4,0.3,0.7,0.7,1.1,1c1.7,1.7,3.1,3.6,4,5.7c38.3,52.4,27.8,109.7-31,170.5l0,0
		c-18.8,19.4-56.7,44.7-100.6,74c-55.5,37-118.4,79-167,124.2c-41.7,38.8-66.9,67.9-91.2,96.1c-27.4,31.6-53.2,61.5-99.7,102.5
		c-84.1,74.1-193.3,90.4-208.9,92.3c-0.3,0.2-0.6,0.3-0.8,0.4C280.1,811.5,279.1,811.7,278.2,811.7z M279,795.9c0.5,0,1,0.1,1.5,0.2
		c15.8-2.2,121.5-19.1,200.5-88.7c45.8-40.3,71.3-69.9,98.3-101.1c24.6-28.4,50-57.9,92.3-97.2c49.4-46,112.8-88.3,168.8-125.6
		c43.2-28.8,80.6-53.8,98.2-72c54.1-55.9,63.7-105.7,29.2-152.3l-0.6-0.8l-0.4-0.9c-0.2-0.6-0.6-1.2-1.1-1.6
		c-0.2-0.2-0.5-0.4-0.7-0.7c-0.4-0.3-0.7-0.7-1.1-1c-0.9-0.8-1.4-1.6-1.9-2.2c-0.1-0.1-0.2-0.2-0.2-0.3c-0.4-0.5-0.9-0.8-1.5-1.1
		l-0.9-0.4l-0.8-0.7c-43.9-37.7-94.3-31.8-154,18.1c-19.5,16.3-47.1,51.8-79.1,92.8c-41.3,53.1-88.1,113.2-137.5,159.1
		c-42.3,39.3-73.5,62.5-103.6,85c-33.2,24.7-64.5,48-108,90.7c-75.2,73.7-99.8,177.6-103.1,193.5c0.1,0.6,0.2,1.2,0.2,1.8
		c0.6,0.7,1.7,1.9,3.4,3.6C277.9,794.8,278.5,795.4,279,795.9z"/>
</g>
<g>
	<path class="st0" d="M278.7,818.2l-27.6-29.6l6.1-5.5c3.4-13.7,22.2-83.5,68.6-153.7l5.1-7.7l120.2,129.4l-8.1,4.5
		c-73.6,41.3-144.9,54.9-158.4,57.2L278.7,818.2z M271,788.5l9.5,10.2c4.2-0.7,74.4-12.4,147.3-51.4l-94.8-102
		C288.8,715.2,272,784.2,271,788.5z"/>
</g>
<g>
	<path class="st0" d="M205.7,871.4l-13.5-14.5l59.1-63.4l-2.5-2.6l17.5-16.3l26.8,28.8l-17.5,16.3l-2.4-2.6L205.7,871.4z
		 M267.7,797.4l-19.8,21.3l22.7-18.2L267.7,797.4z"/>
</g>
<g>
	<path class="st0" d="M865,272.4c-7.3,0-14.7-2.9-20.1-8.7c-5-5.4-7.6-12.3-7.3-19.6c0.3-7.3,3.4-14.1,8.7-19.1l0,0
		c5.4-5,12.3-7.6,19.6-7.3c7.3,0.3,14.1,3.4,19.1,8.7c5,5.4,7.6,12.3,7.3,19.6c-0.3,7.3-3.4,14.1-8.7,19.1
		C878.3,270,871.6,272.4,865,272.4z M864.9,232.3c-3.2,0-6.3,1.2-8.7,3.4l0,0c-2.5,2.3-3.9,5.5-4.1,8.9c-0.1,3.4,1.1,6.7,3.4,9.2
		c4.8,5.2,12.9,5.4,18,0.7c2.5-2.3,3.9-5.5,4.1-8.9c0.1-3.4-1.1-6.7-3.4-9.2c-2.3-2.5-5.5-3.9-8.9-4.1
		C865.3,232.3,865.1,232.3,864.9,232.3z"/>
</g>
<g>
	<path class="st0" d="M803.9,318.4c-4.4,0-8.9-1.8-12.1-5.3c-6.2-6.7-5.8-17.2,0.9-23.4c6.7-6.2,17.2-5.8,23.4,0.9
		c3,3.2,4.6,7.5,4.4,11.9c-0.2,4.4-2,8.5-5.3,11.5C811.9,316.9,807.9,318.4,803.9,318.4z M803.8,299.9c-0.5,0-0.9,0.2-1.3,0.5l0,0
		c-0.8,0.7-0.8,2-0.1,2.8c0.7,0.8,2,0.8,2.8,0.1c0.5-0.5,0.6-1,0.6-1.4c0-0.4-0.1-0.9-0.5-1.4C804.9,300.1,804.4,299.9,803.8,299.9z
		"/>
</g>
<g>
	<path class="st0" d="M779,341.5c-0.2,0-0.4,0-0.6,0c-4.4-0.2-8.5-2-11.5-5.3c-3-3.2-4.6-7.5-4.4-11.9c0.2-4.4,2-8.5,5.3-11.5l0,0
		c6.7-6.2,17.2-5.8,23.4,0.9c3,3.2,4.6,7.5,4.4,11.9c-0.2,4.4-2,8.5-5.3,11.5C787.2,339.9,783.2,341.5,779,341.5z M777.6,323.5
		c-0.5,0.5-0.6,1-0.6,1.4c0,0.4,0.1,0.9,0.5,1.4c0.5,0.5,1,0.6,1.4,0.6c0.4,0,0.9-0.1,1.4-0.5c0.5-0.5,0.6-1,0.6-1.4
		c0-0.4-0.1-0.9-0.5-1.4C779.7,322.8,778.4,322.8,777.6,323.5L777.6,323.5z"/>
</g>
<g>
	<path class="st0" d="M754.1,364.6c-4.4,0-8.9-1.8-12.1-5.3c-3-3.2-4.6-7.5-4.4-11.9c0.2-4.4,2-8.5,5.3-11.5c3.2-3,7.5-4.6,11.9-4.4
		c4.4,0.2,8.5,2,11.5,5.3c3,3.2,4.6,7.5,4.4,11.9c-0.2,4.4-2,8.5-5.3,11.5C762.2,363.2,758.1,364.6,754.1,364.6z M754.1,346.1
		c-0.4,0-0.9,0.1-1.3,0.5l0,0c-0.5,0.5-0.6,1-0.6,1.4c0,0.4,0.1,0.9,0.5,1.4c0.7,0.8,2,0.8,2.8,0.1c0.5-0.5,0.6-1,0.6-1.4
		c0-0.4-0.1-0.9-0.5-1.4C755.1,346.3,754.5,346.1,754.1,346.1C754.2,346.1,754.1,346.1,754.1,346.1z"/>
</g>
<g>
	<path class="st0" d="M132.9,608.9h-15.2l0.3-7.6c0-0.4,0-0.8,0.1-1.2c0-0.4,0.1-0.8,0.1-1.1h7.2v-4.6h0.3v4.6h7.2
		c0,0.3,0,0.5,0,0.8c0.1,0.6,0.1,1.3,0.1,1.9V608.9z"/>
</g>
<g>
	<path class="st0" d="M213.1,529l-7.6-0.3c-0.4,0-0.8,0-1.2-0.1c-0.4,0-0.7-0.1-1.1-0.1v-7.2h-4.6v-0.3h4.6v-7.2
		c0.4,0,0.8,0,1.1-0.1c0.5,0,0.9-0.1,1.4-0.1l7.5-0.2V529z"/>
</g>
<g>
	<path class="st0" d="M118.2,598.9c0-38.1-29.9-69-68-70.3l-7.1-0.2V514l7.1-0.2c36.8-1.3,66.6-31.1,67.8-67.8l0.2-7.1h14.4l0.2,7.1
		c1.3,38.1,32.1,67.9,70.2,68l0,14.6c-38.8,0-70.3,31.6-70.3,70.4L118.2,598.9z M82.2,521.1c19.4,8.5,34.9,23.9,43.4,43.2
		c8.6-19.1,24-34.5,43.1-43.1c-19.3-8.5-34.7-24-43.2-43.4C116.8,497.1,101.4,512.6,82.2,521.1z"/>
</g>
<g>
	<path class="st0" d="M717.6,911h-15.2l0.3-7.6c0-0.4,0-0.8,0.1-1.2c0-0.4,0.1-0.7,0.1-1.1h7.2v-4.6h0.3v4.6h7.2c0,0.3,0,0.5,0,0.8
		c0.1,0.6,0.1,1.3,0.1,1.9V911z"/>
</g>
<g>
	<path class="st0" d="M797.9,831.1l-7.6-0.3c-0.4,0-0.8,0-1.2-0.1c-0.4,0-0.8-0.1-1.1-0.1v-7.2h-4.6v-0.3h4.6V816c0.4,0,0.7,0,1,0
		c0.5,0,1-0.1,1.5-0.1l7.5-0.2V831.1z"/>
</g>
<g>
	<path class="st0" d="M717.5,901.1l-14.6,0c0-38.1-29.8-69-68-70.3l-7.1-0.2v-14.4l7.1-0.2c36.8-1.3,66.6-31.1,67.8-67.8l0.2-7.1
		h14.4l0.2,7.1c1.3,38.1,32.1,68,70.3,68l0,14.6C749.1,830.7,717.5,862.2,717.5,901.1C717.5,901.1,717.5,901.1,717.5,901.1z
		 M666.9,823.2c19.4,8.5,34.8,23.9,43.4,43.2c8.6-19.1,24-34.5,43.1-43.1c-19.3-8.5-34.7-24-43.2-43.4
		C701.5,799.2,686,814.7,666.9,823.2z"/>
</g>
<g>
	<path class="st0" d="M540.6,240.5h-16l1.2-8.4c0-0.2,0-0.6,0-0.9h7.2v-5.3h0.2v5.3h7.2c0,0.2,0,0.3,0,0.5c0,0.5,0.1,1,0.1,1.5
		V240.5z"/>
</g>
<g>
	<path class="st0" d="M592.9,180.7h-2v-7.3h-5.3l5.3-0.1v-7.2c0.2,0,0.4,0,0.7-0.1l8.6-1.5v16L592.9,180.7z"/>
</g>
<g>
	<path class="st0" d="M525.8,231.2c0-27.3-21.4-49.5-48.7-50.4l-7.1-0.2v-14.3l7.1-0.2c26.4-0.9,47.7-22.3,48.6-48.6l0.2-7.1h14.3
		l0.2,7.1c0.9,27.3,23.1,48.7,50.4,48.7l0,14.6c-27.8,0-50.5,22.6-50.5,50.5L525.8,231.2z M505.3,173.3c12,6.2,21.7,15.9,27.9,27.8
		c6.2-11.8,15.9-21.5,27.7-27.7c-11.9-6.2-21.7-15.9-27.8-27.9C526.9,157.4,517.1,167.1,505.3,173.3z"/>
</g>
<g>
	<rect x="159.8" y="350.9" class="st0" width="31.9" height="9.7"/>
</g>
<g>
	<rect x="193.9" y="362.9" class="st0" width="9.7" height="31.9"/>
</g>
<g>
	<rect x="193.9" y="316.8" class="st0" width="9.7" height="31.9"/>
</g>
<g>
	<rect x="205.9" y="350.9" class="st0" width="31.9" height="9.7"/>
</g>
<g>
	<rect x="354.7" y="925.9" class="st0" width="31.9" height="9.7"/>
</g>
<g>
	<rect x="388.8" y="937.8" class="st0" width="9.7" height="31.9"/>
</g>
<g>
	<rect x="388.8" y="891.8" class="st0" width="9.7" height="31.9"/>
</g>
<g>
	<rect x="400.8" y="925.9" class="st0" width="31.9" height="9.7"/>
</g>
<g>
	<rect x="958.9" y="448.4" class="st0" width="31.9" height="9.7"/>
</g>
<g>
	<rect x="993" y="460.3" class="st0" width="9.7" height="31.9"/>
</g>
<g>
	<rect x="993" y="414.3" class="st0" width="9.7" height="31.9"/>
</g>
<g>
	<rect x="1005" y="448.4" class="st0" width="31.9" height="9.7"/>
</g>
</svg>
