<?xml version="1.0" encoding="utf-8"?>
<!-- Generator: Adobe Illustrator 21.0.0, SVG Export Plug-In . SVG Version: 6.00 Build 0)  -->
<svg version="1.1" id="Layer_1" xmlns="http://www.w3.org/2000/svg" xmlns:xlink="http://www.w3.org/1999/xlink" x="0px" y="0px"
	 viewBox="0 0 1080 1080" style="enable-background:new 0 0 1080 1080;" xml:space="preserve">
<style type="text/css">
	.st0{fill:#66482E;}
</style>
<title>GC Icon</title>
<g>
	<rect x="166.1" y="519.5" class="st0" width="747.9" height="8.6"/>
</g>
<g>
	<rect x="51" y="588.5" class="st0" width="978" height="8.6"/>
</g>
<g>
	<path class="st0" d="M186.2,689.2c-13.5,0-24.5-11-24.5-24.5c0-13.5,11-24.5,24.5-24.5c13.5,0,24.5,11,24.5,24.5
		C210.7,678.2,199.7,689.2,186.2,689.2z M186.2,648.9c-8.7,0-15.8,7.1-15.8,15.8s7.1,15.8,15.8,15.8c8.7,0,15.8-7.1,15.8-15.8
		S194.9,648.9,186.2,648.9z"/>
</g>
<g>
	<path class="st0" d="M312.8,752.4c-13.5,0-24.5-11-24.5-24.5s11-24.5,24.5-24.5c13.5,0,24.5,11,24.5,24.5S326.2,752.4,312.8,752.4z
		 M312.8,712.2c-8.7,0-15.8,7.1-15.8,15.8s7.1,15.8,15.8,15.8s15.8-7.1,15.8-15.8S321.5,712.2,312.8,712.2z"/>
</g>
<g>
	<path class="st0" d="M448,706.4c-15.1,0-27.3-12.3-27.3-27.3c0-15.1,12.3-27.3,27.3-27.3c15.1,0,27.3,12.3,27.3,27.3
		C475.3,694.2,463,706.4,448,706.4z M448,660.4c-10.3,0-18.7,8.4-18.7,18.7s8.4,18.7,18.7,18.7c10.3,0,18.7-8.4,18.7-18.7
		S458.3,660.4,448,660.4z"/>
</g>
<g>
	<path class="st0" d="M637.8,729.4c-15.1,0-27.3-12.3-27.3-27.3c0-15.1,12.3-27.3,27.3-27.3s27.3,12.3,27.3,27.3
		C665.1,717.2,652.9,729.4,637.8,729.4z M637.8,683.4c-10.3,0-18.7,8.4-18.7,18.7c0,10.3,8.4,18.7,18.7,18.7s18.7-8.4,18.7-18.7
		C656.5,691.8,648.1,683.4,637.8,683.4z"/>
</g>
<g>
	<path class="st0" d="M793.1,694.9c-15.1,0-27.3-12.3-27.3-27.3c0-15.1,12.3-27.3,27.3-27.3c15.1,0,27.3,12.3,27.3,27.3
		C820.4,682.6,808.2,694.9,793.1,694.9z M793.1,648.9c-10.3,0-18.7,8.4-18.7,18.7s8.4,18.7,18.7,18.7s18.7-8.4,18.7-18.7
		S803.4,648.9,793.1,648.9z"/>
</g>
<g>
	<path class="st0" d="M908.2,729.4c-11.9,0-21.6-9.7-21.6-21.6c0-11.9,9.7-21.6,21.6-21.6c11.9,0,21.6,9.7,21.6,21.6
		C929.7,719.8,920.1,729.4,908.2,729.4z M908.2,694.9c-7.1,0-12.9,5.8-12.9,12.9c0,7.1,5.8,12.9,12.9,12.9c7.1,0,12.9-5.8,12.9-12.9
		C921.1,700.7,915.3,694.9,908.2,694.9z"/>
</g>
<g>
	<path class="st0" d="M591.9,461h-9.5l0.8-5c0-0.1,0-0.4,0-0.7h4.2v-3h0.1v3h4.2c0,0.1,0,0.2,0,0.3c0,0.3,0,0.7,0,1V461z"/>
</g>
<g>
	<path class="st0" d="M632.6,421l-5-0.8c-0.1,0-0.4,0-0.7,0V416h-3v-0.1h3v-4.2c0.2,0,0.5,0,0.7,0l5-0.3V421z"/>
</g>
<g>
	<path class="st0" d="M591.9,455.3l-8.6,0c0,0,0,0,0,0c0-19-14.9-34.3-33.8-34.9l-4.2-0.1v-8.5l4.2-0.1
		c18.3-0.6,33.2-15.5,33.8-33.8l0.1-4.2h8.5l0.1,4.2c0.6,19,16,33.8,35,33.8c0,0,0,0,0,0l0,8.6c0,0,0,0,0,0
		c-9.4,0-18.2,3.7-24.8,10.3C595.5,437.1,591.9,445.9,591.9,455.3C591.9,455.3,591.9,455.3,591.9,455.3z M567.1,415.9
		c9,4.3,16.2,11.5,20.5,20.4c2.1-4.3,4.9-8.3,8.5-11.9c3.5-3.5,7.5-6.4,11.9-8.5c-8.9-4.3-16.1-11.5-20.4-20.5
		C583.2,404.3,576,411.6,567.1,415.9z"/>
</g>
<g>
	<rect x="292.6" y="434.6" class="st0" width="18.8" height="5.8"/>
</g>
<g>
	<rect x="312.8" y="441.7" class="st0" width="5.8" height="18.8"/>
</g>
<g>
	<rect x="312.8" y="414.5" class="st0" width="5.8" height="18.8"/>
</g>
<g>
	<rect x="319.8" y="434.6" class="st0" width="18.8" height="5.8"/>
</g>
<g>
	<rect x="494" y="365.6" class="st0" width="18.8" height="5.8"/>
</g>
<g>
	<rect x="514.1" y="372.6" class="st0" width="5.8" height="18.8"/>
</g>
<g>
	<rect x="514.1" y="345.4" class="st0" width="5.8" height="18.8"/>
</g>
<g>
	<rect x="521.2" y="365.6" class="st0" width="18.8" height="5.8"/>
</g>
<g>
	<path class="st0" d="M954.4,507h-9.5l0.8-5c0-0.1,0-0.4,0-0.7h4.2v-3h0.1v3h4.2c0,0.1,0,0.2,0,0.3c0,0.3,0.1,0.7,0.1,1V507z"/>
</g>
<g>
	<path class="st0" d="M995.1,467.1l-5-0.8c-0.1,0-0.4,0-0.7,0V462h-3v-0.1h3v-4.2c0.2,0,0.4,0,0.6,0l5.1-0.3V467.1z"/>
</g>
<g>
	<path class="st0" d="M954.4,501.3l-8.6,0c0,0,0,0,0,0l0,0c0,0,0,0,0,0c0,0,0,0,0,0c0-19-14.9-34.3-33.8-35l-4.2-0.1v-8.5l4.2-0.1
		c18.3-0.6,33.2-15.5,33.8-33.8l0.1-4.2h8.5l0.1,4.2c0.6,19,16,33.8,35,33.8c0,0,0,0,0,0c0,0,0,0,0,0l0,8.6c0,0,0,0,0,0
		C970.1,466.3,954.4,482,954.4,501.3C954.4,501.3,954.4,501.3,954.4,501.3z M929.6,461.9c9,4.3,16.2,11.5,20.5,20.4
		c4.3-8.8,11.5-16,20.3-20.3c-8.9-4.3-16.2-11.5-20.4-20.5C945.7,450.4,938.5,457.6,929.6,461.9z"/>
</g>
<g>
	<rect x="1006" y="377.1" class="st0" width="18.8" height="5.8"/>
</g>
<g>
	<rect x="1026.1" y="384.1" class="st0" width="5.8" height="18.8"/>
</g>
<g>
	<rect x="1026.1" y="356.9" class="st0" width="5.8" height="18.8"/>
</g>
<g>
	<rect x="1033.2" y="377.1" class="st0" width="18.8" height="5.8"/>
</g>
<g>
	<rect x="28" y="469.1" class="st0" width="18.8" height="5.8"/>
</g>
<g>
	<rect x="48.1" y="476.2" class="st0" width="5.8" height="18.8"/>
</g>
<g>
	<rect x="48.1" y="449" class="st0" width="5.8" height="18.8"/>
</g>
<g>
	<rect x="55.2" y="469.1" class="st0" width="18.8" height="5.8"/>
</g>
<g>
	<path class="st0" d="M246.8,414.9h-9.5l0.8-5c0-0.1,0-0.4,0-0.7h4.2v-3h0.1v3h4.2c0,0.1,0,0.2,0,0.3c0,0.3,0,0.7,0,1V414.9z"/>
</g>
<g>
	<path class="st0" d="M287.5,375l-5-0.8c-0.1,0-0.4,0-0.7,0V370h-3v-0.1h3v-4.2c0.1,0,0.3,0,0.4,0c0.3,0,0.5,0,0.8,0l4.4-0.1V375z"
		/>
</g>
<g>
	<path class="st0" d="M246.8,409.3l-8.6,0c0,0,0,0,0,0l0,0c0,0,0,0,0,0c0,0,0,0,0,0c0-19-14.9-34.3-33.8-35l-4.2-0.1v-8.5l4.2-0.1
		c18.3-0.6,33.2-15.5,33.8-33.8l0.1-4.2h8.5l0.1,4.2c0.6,19,16,33.8,35,33.8c0,0,0,0,0,0c0,0,0,0,0,0l0,8.6c0,0,0,0,0,0l0,0
		C262.5,374.2,246.8,389.9,246.8,409.3C246.8,409.2,246.8,409.3,246.8,409.3z M222,369.8c9,4.3,16.2,11.5,20.5,20.4
		c4.3-8.8,11.5-16,20.3-20.3c-8.9-4.3-16.2-11.5-20.4-20.5C238.1,358.3,230.9,365.5,222,369.8z"/>
</g>
</svg>
