<?xml version="1.0" encoding="utf-8"?>
<!-- Generator: Adobe Illustrator 21.0.0, SVG Export Plug-In . SVG Version: 6.00 Build 0)  -->
<svg version="1.1" id="Layer_1" xmlns="http://www.w3.org/2000/svg" xmlns:xlink="http://www.w3.org/1999/xlink" x="0px" y="0px"
	 viewBox="0 0 1080 1080" style="enable-background:new 0 0 1080 1080;" xml:space="preserve">
<style type="text/css">
	.st0{fill:#66482E;}
</style>
<title>GC Icon</title>
<g>
	<path class="st0" d="M1056,666.7H705.5l-1.7-4.7c-0.1-0.2-7.1-19.1-30.5-37.7c-39.5-31.4-94.3-38-133.3-38
		c-135.5,0-163.5,75-163.8,75.7l-1.7,4.7H24v-14.2h340.9c3.7-7.6,13-23.2,32.1-38.7c42.7-34.6,101.3-41.8,143-41.8
		c41.7,0,100.3,7.3,143,41.8c19.1,15.5,28.4,31.1,32.1,38.7H1056V666.7z"/>
</g>
<g>
	<rect x="24" y="775.5" class="st0" width="1032" height="14.2"/>
</g>
<g>
	<path class="st0" d="M774.2,574.1h-14.8l0.3-7.4c0-0.4,0-0.8,0.1-1.2c0-0.4,0.1-0.7,0.1-1.1h7v-4.5h0.3v4.5h7c0,0.3,0,0.5,0,0.8
		c0,0.6,0.1,1.2,0.1,1.8V574.1z"/>
</g>
<g>
	<path class="st0" d="M852.2,496.4l-7.4-0.3c-0.4,0-0.8,0-1.2-0.1c-0.4,0-0.7-0.1-1.1-0.1v-7H838v-0.3h4.5v-7c0.3,0,0.7,0,1,0
		c0.5,0,1-0.1,1.5-0.1l7.3-0.2V496.4z"/>
</g>
<g>
	<path class="st0" d="M759.9,564.4c0-37-29-67-66-68.3l-6.9-0.2v-14l6.9-0.2c35.7-1.2,64.7-30.2,65.9-65.9l0.2-6.9h14l0.2,6.9
		c1.2,37,31.2,66.1,68.3,66.1l0,14.2c-37.7,0-68.4,30.7-68.4,68.4L759.9,564.4z M724.8,488.8c18.8,8.2,33.9,23.3,42.2,42
		c8.3-18.6,23.3-33.6,41.9-41.9c-18.7-8.3-33.7-23.3-42-42.2C758.6,465.5,743.5,480.5,724.8,488.8z"/>
</g>
<g>
	<path class="st0" d="M270.5,442.6h-15.7l1.3-8.2c0-0.2,0-0.7,0-1.1h7v-4.9h0.2v4.9h7c0,0.2,0,0.4,0,0.6c0,0.6,0.1,1.1,0.1,1.7
		V442.6z"/>
</g>
<g>
	<path class="st0" d="M337.4,376.8l-8.2-1.3c-0.2,0-0.7,0-1.1,0v-7h-4.9v-0.2h4.9v-7c0.2,0,0.5,0,0.7,0c0.4,0,0.9-0.1,1.3-0.1
		l7.3-0.2V376.8z"/>
</g>
<g>
	<path class="st0" d="M270.4,433.2l-14.2,0c0,0,0,0,0,0l0,0c0,0,0,0,0,0c0,0,0,0,0,0c0-31.2-24.5-56.5-55.7-57.5l-6.9-0.2v-14
		l6.9-0.2c30.2-1,54.6-25.4,55.6-55.6l0.2-6.9h14l0.2,6.9c1,31.2,26.3,55.7,57.5,55.7c0,0,0,0,0,0c0,0,0,0,0,0l0,14.2c0,0,0,0,0,0
		C296.3,375.5,270.4,401.4,270.4,433.2C270.4,433.2,270.4,433.2,270.4,433.2z M229.6,368.3c14.8,7,26.7,18.9,33.7,33.6
		c7.1-14.6,18.9-26.4,33.5-33.5c-14.7-7.1-26.6-19-33.6-33.7C256.2,349.4,244.3,361.3,229.6,368.3z"/>
</g>
<g>
	<rect x="317.5" y="484.4" class="st0" width="31" height="9.5"/>
</g>
<g>
	<rect x="350.7" y="496" class="st0" width="9.5" height="31"/>
</g>
<g>
	<rect x="350.7" y="451.2" class="st0" width="9.5" height="31"/>
</g>
<g>
	<rect x="362.3" y="484.4" class="st0" width="31" height="9.5"/>
</g>
<g>
	<rect x="544.7" y="323.4" class="st0" width="31" height="9.5"/>
</g>
<g>
	<rect x="577.9" y="335" class="st0" width="9.5" height="31"/>
</g>
<g>
	<rect x="577.9" y="290.3" class="st0" width="9.5" height="31"/>
</g>
<g>
	<rect x="589.5" y="323.4" class="st0" width="31" height="9.5"/>
</g>
</svg>
