<?xml version="1.0" encoding="utf-8"?>
<!-- Generator: Adobe Illustrator 21.0.0, SVG Export Plug-In . SVG Version: 6.00 Build 0)  -->
<svg version="1.1" id="Layer_1" xmlns="http://www.w3.org/2000/svg" xmlns:xlink="http://www.w3.org/1999/xlink" x="0px" y="0px"
	 viewBox="0 0 1080 1080" style="enable-background:new 0 0 1080 1080;" xml:space="preserve">
<style type="text/css">
	.st0{fill:#66482E;}
</style>
<title>GC Icon</title>
<g>
	<path class="st0" d="M550.8,810.8c-66.8,0-138.3-30.2-177.5-76c-30.9-36.1-50-108.2-61.6-176.1c-7.5-8.8-35.6-43-60.9-90.1
		c-38.7-72-51.8-139.5-37.8-195.3c36.4-145.5,136.5-183,192.9-192.4c65.8-11,256.1-0.6,264.2-0.1l11.1,0.6l-2.9,10.7
		c-1.4,5.1-35.7,125.5-191.4,181C351.5,321.5,317.3,392,312.7,402.7c1.2,23,14.4,250.6,74.2,320.4c38.3,44.7,110.6,73.3,175.7,69.3
		c40.3-2.4,96.9-18.2,137.7-79.4c20.9-31.3,57.9-104.6,71.2-243.4l17.9,1.7c-7.2,74.8-25.9,179.2-74.2,251.7
		c-44.9,67.4-107.2,84.7-151.6,87.4C559.5,810.6,555.1,810.8,550.8,810.8z M504.1,93.9c-38.3,0-74,1.2-95.2,4.7
		c-52.1,8.7-144.6,43.5-178.5,179c-23.3,93,40.9,197,75.8,244.7c-8.8-63.4-11.2-116-11.4-120.7l-0.1-1.7l0.5-1.6
		c1.2-3.5,30.4-86.7,185.7-142.2c120.5-43,164.2-128.2,176.3-158.1C630.6,96.8,564.2,93.9,504.1,93.9z"/>
</g>
<g>
	<path class="st0" d="M725.8,298.6C689.1,264.5,614.9,241,574,230.1l4.6-17.3c52,13.9,121.8,37.7,159.4,72.7L725.8,298.6z"/>
</g>
<g>
	<path class="st0" d="M778.9,538.6l-12.6-12.7c1.3-1.3,134.9-135.4,134.9-261.2c0-107.8-209.5-160.4-233.4-166.1l4.1-17.5
		C713.1,90.9,919,145.6,919,264.7c0,56.2-23.7,119.4-70.3,188C814.2,503.3,780.3,537.2,778.9,538.6z"/>
</g>
<g>
	<path class="st0" d="M30.1,993.1l-9.9-14.9c2.7-1.8,67.6-44.7,144.5-66.7c36.4-10.4,78.4-8.9,119-7.5c44.4,1.5,86.3,3,107.4-12.9
		c20-15,27.5-46.3,30.3-70c3.2-26.8,1.1-50.1,1.1-50.3l17.9-1.6c0.4,4.1,8.6,100.9-38.5,136.3c-26.2,19.7-71.2,18.1-118.8,16.4
		c-39.2-1.4-79.8-2.8-113.5,6.8C95.5,949.9,30.8,992.7,30.1,993.1z"/>
</g>
<g>
	<path class="st0" d="M1049.9,1004c-0.6-0.4-65.3-43.2-139.5-64.4c-33.7-9.6-74.3-8.2-113.6-6.9c-47.6,1.6-92.5,3.2-118.7-16.4
		c-47.2-35.3-38.9-132.2-38.6-136.3l17.9,1.6c0,0.2-2.1,23.6,1.1,50.4c2.8,23.7,10.4,55,30.3,69.9c21.1,15.8,63,14.4,107.4,12.8
		c40.7-1.4,82.7-2.8,119.1,7.6c76.9,22,141.8,64.9,144.5,66.7L1049.9,1004z"/>
</g>
<g>
	<path class="st0" d="M775.4,463.8h-18.7l0.4-9.4c0-0.5,0.1-1,0.1-1.5c0-0.5,0.1-0.9,0.1-1.4h8.8v-5.7h0.3v5.7h8.8
		c0,0.3,0,0.6,0.1,1c0.1,0.8,0.1,1.6,0.1,2.3V463.8z"/>
</g>
<g>
	<path class="st0" d="M873.9,365.7l-9.4-0.4c-0.5,0-1-0.1-1.5-0.1c-0.5,0-0.9-0.1-1.4-0.1v-8.8h-5.7V356h5.7v-8.8
		c0.4,0,0.8,0,1.2-0.1c0.6,0,1.2-0.1,1.9-0.1l9.2-0.2V365.7z"/>
</g>
<g>
	<path class="st0" d="M757.3,451.5c0-46.8-36.6-84.6-83.4-86.2l-8.7-0.3v-17.7l8.7-0.3c45.1-1.5,81.7-38.1,83.2-83.2l0.3-8.7h17.7
		l0.3,8.7c1.6,46.7,39.4,83.4,86.2,83.4l0,17.9c-47.6,0-86.3,38.7-86.4,86.3L757.3,451.5z M713.1,356.1c23.8,10.4,42.7,29.4,53.2,53
		c10.5-23.4,29.4-42.3,52.8-52.8c-23.6-10.5-42.6-29.4-53-53.2C755.7,326.6,736.7,345.6,713.1,356.1z"/>
</g>
<g>
	<rect x="856.2" y="577.6" class="st0" width="39.1" height="11.9"/>
</g>
<g>
	<rect x="898" y="592.3" class="st0" width="11.9" height="39.1"/>
</g>
<g>
	<rect x="898" y="535.8" class="st0" width="11.9" height="39.1"/>
</g>
<g>
	<rect x="912.7" y="577.6" class="st0" width="39.1" height="11.9"/>
</g>
<g>
	<rect x="198.9" y="780.8" class="st0" width="39.1" height="11.9"/>
</g>
<g>
	<rect x="240.7" y="795.4" class="st0" width="11.9" height="39.1"/>
</g>
<g>
	<rect x="240.7" y="739" class="st0" width="11.9" height="39.1"/>
</g>
<g>
	<rect x="255.4" y="780.8" class="st0" width="39.1" height="11.9"/>
</g>
</svg>
