<?xml version="1.0" encoding="utf-8"?>
<!-- Generator: Adobe Illustrator 21.0.0, SVG Export Plug-In . SVG Version: 6.00 Build 0)  -->
<svg version="1.1" id="Layer_1" xmlns="http://www.w3.org/2000/svg" xmlns:xlink="http://www.w3.org/1999/xlink" x="0px" y="0px"
	 viewBox="0 0 1080 1080" style="enable-background:new 0 0 1080 1080;" xml:space="preserve">
<style type="text/css">
	.st0{fill:#66482E;}
</style>
<title>GC Icon</title>
<g>
	<path class="st0" d="M50.5,574l-19-6.3c3.8-11.5,10.3-21.5,17.8-33.1c20.4-31.5,48.3-74.6,48.3-190.3
		c0-149.2-35.4-178.1-35.8-178.4l0.3,0.2l11.1-16.6c4.5,3,44.4,34.3,44.4,194.9c0,121.6-31,169.5-51.5,201.1
		C59.1,556.3,53.6,564.9,50.5,574z"/>
</g>
<g>
	<polygon class="st0" points="33.7,583 18,520 37.4,515.1 48.3,558.7 91.9,547.8 96.8,567.2 	"/>
</g>
<g>
	<path class="st0" d="M1017.5,565.8c-3-9.1-8.6-17.7-15.6-28.6c-10.5-16.2-23.5-36.3-33.8-67.6c-11.9-36.3-17.7-80-17.7-133.5
		c0-160.6,39.9-191.8,44.4-194.9l11.1,16.6l0.3-0.2c-0.4,0.3-35.8,29.2-35.8,178.4c0,115.7,27.9,158.8,48.3,190.3
		c7.5,11.6,14,21.6,17.8,33.1L1017.5,565.8z"/>
</g>
<g>
	<polygon class="st0" points="1034.3,574.7 971.2,559 976.1,539.6 1019.7,550.5 1030.6,506.9 1050,511.7 	"/>
</g>
<g>
	<path class="st0" d="M168.5,963.8c-1.4-4.2-33.9-103.1-27.1-217c2.7-44.7,23.1-82.4,46.8-126c35-64.6,78.6-145,86.5-287.1
		c6.4-115.3-49.2-206.2-49.8-207.1l17-10.6c2.4,3.9,59.5,97.2,52.8,218.7c-8.1,146.6-52.9,229.1-88.9,295.5
		c-23.5,43.3-42,77.5-44.4,117.7c-6.5,109.9,25.8,208.5,26.2,209.5L168.5,963.8z"/>
</g>
<g>
	<path class="st0" d="M551,570.8c-160.9,0-295.2-63.2-300.8-65.9l8.6-18c1.3,0.6,136,64,292.2,64V570.8z"/>
</g>
<g>
	<path class="st0" d="M932.7,963.8l-19-6.3c0.3-1,32.6-99.6,26.1-209.5c-2.4-40.2-20.9-74.4-44.4-117.7
		c-36-66.4-80.7-148.9-88.9-295.5c-6.9-121.6,50.2-214.8,52.6-218.8l17,10.6c-0.8,1.3-56.1,92.2-49.6,207.1
		c7.9,142.1,51.5,222.5,86.5,287.1c23.7,43.7,44.1,81.4,46.8,126C966.6,860.7,934.1,959.7,932.7,963.8z M876.3,126.7l-8.5-5.3
		L876.3,126.7C876.3,126.7,876.3,126.7,876.3,126.7L876.3,126.7z"/>
</g>
<g>
	<path class="st0" d="M551,570.8v-20c155.9,0,290-63.3,291.3-64l8.6,18C845.3,507.6,711.3,570.8,551,570.8z"/>
</g>
<g>
	<rect x="541" y="774.1" class="st0" width="20" height="186.5"/>
</g>
<g>
	<rect x="541" y="454.3" class="st0" width="20" height="40"/>
</g>
<g>
	<path class="st0" d="M168.5,963.8c-1.4-4.2-33.9-103.1-27.1-217c2.7-44.7,23.1-82.4,46.8-126c35-64.6,78.6-145,86.5-287.1
		c6.4-115.3-49.2-206.2-49.8-207.1l17-10.6c2.4,3.9,59.5,97.2,52.8,218.7c-8.1,146.6-52.9,229.1-88.9,295.5
		c-23.5,43.3-42,77.5-44.4,117.7c-6.5,109.9,25.8,208.5,26.2,209.5L168.5,963.8z"/>
</g>
<g>
	<path class="st0" d="M551,570.8c-160.9,0-295.2-63.2-300.8-65.9l8.6-18c1.3,0.6,136,64,292.2,64V570.8z"/>
</g>
<g>
	<path class="st0" d="M932.7,963.8l-19-6.3c0.3-1,32.6-99.6,26.1-209.5c-2.4-40.2-20.9-74.4-44.4-117.7
		c-36-66.4-80.7-148.9-88.9-295.5c-6.9-121.6,50.2-214.8,52.6-218.8l17,10.6c-0.8,1.3-56.1,92.2-49.6,207.1
		c7.9,142.1,51.5,222.5,86.5,287.1c23.7,43.7,44.1,81.4,46.8,126C966.6,860.7,934.1,959.7,932.7,963.8z M876.3,126.7l-8.5-5.3
		L876.3,126.7C876.3,126.7,876.3,126.7,876.3,126.7L876.3,126.7z"/>
</g>
<g>
	<path class="st0" d="M551,570.8v-20c155.9,0,290-63.3,291.3-64l8.6,18C845.3,507.6,711.3,570.8,551,570.8z"/>
</g>
<g>
	<rect x="541" y="774.1" class="st0" width="20" height="186.5"/>
</g>
<g>
	<rect x="541" y="454.3" class="st0" width="20" height="40"/>
</g>
</svg>
