<svg id="Layer_1" data-name="Layer 1" xmlns="http://www.w3.org/2000/svg" viewBox="0 0 1080 1080"><defs><style>.cls-1{fill:#c89900;}</style></defs><title>GC Logo</title><circle class="cls-1" cx="778.99" cy="505.38" r="62.39"/><path class="cls-1" d="M1011.24,495l-.21.19.3-1.63c-7.5-12-74.91,109.61-239.71,113.44-169.09,3.93-301.13-80.8-301.13-80.8-12.83,8.25,151.41,83.36,162.92,246.11,11,155.35-100.61,162.14-152.14,162.39-197.62-33-348.74-205.14-348.74-412C132.53,292.4,319.9,105,550.22,105c188.13,0,347.59,125,399.7,296.37h43.29c-53.35-194.57-231.72-338-443-338-253.25,0-459.28,206-459.28,459.28S297,982,550.22,982s461-206,461-459.28C1011.24,516.91,1011.45,500.74,1011.24,495Z"/><path class="cls-1" d="M550.22,767.07a256.2,256.2,0,0,1-29.46,1.76C380.27,768.82,266,654.53,266,514S380.27,259.28,520.75,259.28c97.28,0,182,54.83,224.88,135.19h38.59C738.62,294.39,637.71,224.61,520.75,224.61c-159.6,0-289.44,129.84-289.44,289.44S361.16,803.49,520.75,803.49A291.74,291.74,0,0,0,550.22,802Z"/></svg>