<?xml version="1.0" standalone="no"?>
<!DOCTYPE svg PUBLIC "-//W3C//DTD SVG 20010904//EN"
 "http://www.w3.org/TR/2001/REC-SVG-20010904/DTD/svg10.dtd">
<svg version="1.0" xmlns="http://www.w3.org/2000/svg"
 width="700.000000pt" height="700.000000pt" viewBox="0 0 700.000000 700.000000"
 preserveAspectRatio="xMidYMid meet">
<metadata>
Created by potrace 1.11, written by Peter Selinger 2001-2013
</metadata>
<g transform="translate(0.000000,700.000000) scale(0.100000,-0.100000)"
fill="#000000" stroke="none">
<path d="M3389 6586 c-2 -2 -44 -7 -93 -10 -49 -4 -105 -9 -125 -12 -46 -7
-190 -32 -216 -38 -267 -60 -470 -130 -695 -240 -63 -31 -122 -61 -130 -66 -8
-5 -64 -39 -124 -76 -245 -148 -480 -347 -689 -582 -186 -210 -382 -526 -492
-792 -26 -63 -51 -124 -55 -135 -24 -58 -89 -277 -104 -350 -4 -16 -9 -41 -12
-55 -14 -70 -35 -191 -40 -235 -3 -27 -7 -63 -10 -80 -10 -56 -12 -489 -3
-565 4 -41 11 -100 14 -130 8 -77 51 -287 82 -400 57 -212 169 -480 279 -671
91 -156 92 -158 164 -259 420 -587 1027 -998 1723 -1169 67 -17 139 -33 161
-37 21 -3 46 -7 55 -9 9 -1 41 -6 71 -10 30 -4 64 -9 75 -11 87 -16 400 -22
555 -11 196 15 390 48 565 97 121 34 123 35 145 42 8 3 44 16 80 28 36 12 79
28 95 35 17 7 45 19 64 26 156 62 433 220 604 344 75 55 294 238 308 257 3 5
41 45 85 91 64 65 196 219 242 282 260 354 439 756 527 1180 13 65 27 144 31
175 3 30 7 66 9 79 14 86 26 471 17 514 -4 16 -6 17 -29 2 -13 -9 -41 -33 -62
-53 -234 -229 -375 -338 -583 -450 -144 -78 -382 -164 -518 -187 -123 -20
-165 -26 -245 -32 -148 -11 -458 -5 -540 11 -11 2 -49 7 -85 11 -36 4 -112 16
-170 27 -58 11 -116 22 -130 24 -129 23 -423 113 -619 190 -123 48 -414 186
-481 229 -29 18 -40 21 -40 11 0 -8 78 -76 173 -152 452 -363 693 -683 820
-1089 83 -268 88 -623 11 -859 -85 -261 -296 -441 -587 -500 -196 -40 -316
-43 -463 -11 -66 14 -132 30 -149 35 -16 5 -68 21 -115 36 -315 98 -670 295
-920 509 -44 37 -298 291 -326 326 -358 438 -561 916 -622 1467 -9 84 -9 453
0 547 6 62 17 138 33 230 43 239 154 552 276 777 69 126 227 366 269 408 3 3
30 34 59 70 107 127 296 305 425 400 34 24 63 47 66 50 7 8 186 121 242 153
188 108 448 211 683 271 69 17 94 22 190 37 39 6 81 12 95 15 105 19 473 26
620 11 104 -10 246 -34 368 -63 116 -27 358 -107 412 -135 19 -11 38 -19 43
-19 10 0 188 -89 237 -119 19 -11 42 -24 50 -28 38 -17 225 -146 315 -217 122
-97 337 -311 426 -426 159 -204 270 -390 377 -630 31 -72 92 -239 92 -255 0
-10 12 -15 38 -16 61 -2 245 1 248 4 1 1 -15 54 -35 117 -68 209 -167 429
-263 588 -21 34 -38 64 -38 66 0 3 -26 42 -57 88 -202 294 -377 479 -703 741
-25 20 -241 161 -295 192 -323 188 -759 333 -1115 370 -30 4 -62 9 -70 11 -18
7 -465 16 -471 10z"/>
<path d="M3317 5544 c-1 -1 -42 -4 -92 -8 -49 -3 -103 -8 -120 -11 -60 -11
-131 -24 -152 -30 -13 -3 -31 -7 -42 -9 -126 -28 -352 -120 -470 -191 -78 -47
-105 -65 -166 -109 -250 -181 -447 -417 -585 -700 -90 -183 -155 -400 -177
-587 -16 -131 -9 -439 12 -539 3 -14 8 -41 11 -60 3 -19 7 -42 10 -50 3 -8 8
-26 10 -40 3 -14 16 -61 31 -105 163 -505 518 -909 993 -1133 181 -86 356
-136 580 -168 54 -7 337 -12 378 -6 l28 4 0 114 0 114 -51 -5 c-310 -33 -691
51 -963 213 -202 120 -337 242 -509 456 -41 50 -100 152 -153 261 -246 506
-215 1105 84 1585 22 36 43 67 46 70 3 3 19 25 35 50 38 56 242 267 292 300
20 14 41 30 47 35 30 28 161 108 246 151 133 66 332 132 455 149 23 3 52 8 65
11 52 13 347 12 432 -1 498 -75 901 -332 1172 -747 31 -47 56 -91 56 -97 0 -6
3 -12 8 -12 24 -5 252 -5 252 -1 0 12 -104 199 -142 256 -190 283 -469 523
-776 667 -133 62 -335 126 -457 144 -27 5 -57 9 -65 10 -70 11 -315 26 -323
19z"/>
<path d="M4934 4110 c-86 -30 -99 -37 -155 -88 -194 -178 -172 -483 46 -631
270 -182 629 14 626 342 -1 144 -87 284 -214 348 -94 49 -212 60 -303 29z"/>
</g>
</svg>
