<?xml version="1.0" encoding="utf-8"?>
<!-- Generator: Adobe Illustrator 21.0.0, SVG Export Plug-In . SVG Version: 6.00 Build 0)  -->
<svg version="1.1" id="Layer_1" xmlns="http://www.w3.org/2000/svg" xmlns:xlink="http://www.w3.org/1999/xlink" x="0px" y="0px"
	 viewBox="0 0 1080 1080" style="enable-background:new 0 0 1080 1080;" xml:space="preserve">
<style type="text/css">
	.st0{fill:#66482E;}
</style>
<title>GC Icon</title>
<g>
	<path class="st0" d="M81.6,1041.2l-11.2-15.7l5.6,7.8l-5.6-7.8c0.3-0.2,26.4-19.5,54.1-67.9c25.6-44.9,57.8-124.6,65.6-249.7
		c15.2-242.8,30.4-449.1,62.9-514c29.7-59.4,123.6-160,287-160v19.2c-154,0-242.1,93.9-269.8,149.3
		c-30.8,61.6-46.4,274.8-60.9,506.6C193.8,958.4,86.2,1037.9,81.6,1041.2z"/>
</g>
<g>
	<path class="st0" d="M287.9,570.8l-6.1-18.2c0.4-0.1,45.9-17.1,134.9-120.9c54.7-63.7,106.5-131,154-200.2l15.9,10.9
		C538.7,312.1,486.5,380,431.3,444.2C337.8,553.2,289.9,570.1,287.9,570.8z"/>
</g>
<g>
	<path class="st0" d="M802.1,504.1c-0.3-0.6-31.3-62-91.8-137.5c-60.3-75.4-121.4-121.6-122-122l11.5-15.4
		c2.6,1.9,63.5,48,125.5,125.4c61.8,77.2,92.6,138.3,93.9,140.9L802.1,504.1z"/>
</g>
<g>
	<path class="st0" d="M547.7,787.8c-73,0-138-41.7-187.9-120.5c-37.1-58.6-52.7-116.2-53.4-118.7l18.6-5
		c0.2,0.6,15.6,57.6,51.3,113.7c46.8,73.7,104.5,111.1,171.4,111.1c79.3,0,142.8-50.6,188.7-150.4c34.9-75.8,45.7-152.5,45.8-153.3
		l19,2.6c-0.4,3.2-11.4,80.3-47.4,158.7C705.3,732,634,787.8,547.7,787.8z"/>
</g>
<g>
	<path class="st0" d="M385.9,1046l-16.5-9.9l46.4-77.3c44.1-73.5,25.8-206.5,25.6-207.9l19-2.7c0.8,5.7,19.4,141.1-28.2,220.5
		L385.9,1046z"/>
</g>
<g>
	<path class="st0" d="M709.7,1046l-46.4-77.3c-47.6-79.3-29-214.7-28.2-220.5l19,2.7c-0.2,1.3-18.4,134.4,25.6,207.9l46.4,77.3
		L709.7,1046z"/>
</g>
<g>
	<path class="st0" d="M998.4,1041.2c-4.6-3.3-112.2-82.8-127.7-332c-14.5-231.8-30-445-60.9-506.6C782,147.1,694,53.2,540,53.2V34
		c163.4,0,257.3,100.6,287,160c32.5,64.9,47.7,271.2,62.9,514c7.8,125.1,40,204.8,65.6,249.7c27.7,48.4,53.8,67.7,54.1,67.9
		L998.4,1041.2z"/>
</g>
<g>
	<path class="st0" d="M587.7,711.8l-0.1-19.2c0.5,0,47-2.1,94.3-84.9c46.9-82.1,26.2-117.9,26-118.3L724,479c0.8,1.2,8,12.7,8,35.8
		c0,29.3-11.3,63.8-33.4,102.5C645.2,710.8,590.1,711.8,587.7,711.8z"/>
</g>
<g>
	<polygon class="st0" points="698.4,515.3 682.4,504.7 712.1,460.1 757.5,475.2 751.4,493.5 719.9,483 	"/>
</g>
</svg>
