<?xml version="1.0" encoding="utf-8"?>
<!-- Generator: Adobe Illustrator 21.0.0, SVG Export Plug-In . SVG Version: 6.00 Build 0)  -->
<svg version="1.1" id="Layer_1" xmlns="http://www.w3.org/2000/svg" xmlns:xlink="http://www.w3.org/1999/xlink" x="0px" y="0px"
	 viewBox="0 0 1080 1080" style="enable-background:new 0 0 1080 1080;" xml:space="preserve">
<style type="text/css">
	.st0{fill:#66482E;}
</style>
<title>GC Icon</title>
<g>
	<path class="st0" d="M219,896.9l-7.7-10.7l3.8,5.4l-3.9-5.4c0.2-0.1,18.1-13.3,37.1-46.6c17.6-30.8,39.7-85.5,45.1-171.3
		c10.4-166.6,20.8-308.2,43.1-352.7c20.4-40.8,84.8-109.8,196.9-109.8V219c-105.7,0-166.1,64.4-185.1,102.5
		c-21.1,42.3-31.8,188.6-41.8,347.7C296,840.1,222.2,894.7,219,896.9z"/>
</g>
<g>
	<path class="st0" d="M360.5,574.1l-4.2-12.5c0.3-0.1,31.5-11.7,92.6-82.9c37.5-43.7,73.1-89.9,105.7-137.4l10.9,7.5
		c-32.9,47.9-68.7,94.5-106.5,138.5C394.8,562.1,361.9,573.7,360.5,574.1z"/>
</g>
<g>
	<path class="st0" d="M713.4,528.4c-0.2-0.4-21.5-42.5-63-94.3c-41.4-51.7-83.3-83.4-83.7-83.7l7.9-10.6c1.8,1.3,43.6,32.9,86.1,86
		c42.4,53,63.6,94.9,64.5,96.7L713.4,528.4z"/>
</g>
<g>
	<path class="st0" d="M538.9,723.1c-50.1,0-94.7-28.6-128.9-82.7c-25.5-40.2-36.2-79.8-36.6-81.4l12.7-3.4
		c0.1,0.4,10.7,39.5,35.2,78c32.1,50.6,71.7,76.3,117.6,76.3c54.4,0,98-34.7,129.5-103.2c23.9-52,31.4-104.7,31.4-105.2l13.1,1.8
		c-0.3,2.2-7.8,55.1-32.5,108.9C646.9,684.7,598,723.1,538.9,723.1z"/>
</g>
<g>
	<path class="st0" d="M427.8,900.2l-11.3-6.8l31.8-53.1c30.2-50.4,17.7-141.7,17.6-142.6l13.1-1.9c0.6,3.9,13.3,96.8-19.3,151.3
		L427.8,900.2z"/>
</g>
<g>
	<path class="st0" d="M650,900.2l-31.8-53.1c-32.7-54.4-19.9-147.4-19.3-151.3l13.1,1.9c-0.1,0.9-12.6,92.2,17.6,142.6l31.8,53.1
		L650,900.2z"/>
</g>
<g>
	<path class="st0" d="M848.1,896.9c-3.1-2.2-77-56.8-87.7-227.8c-10-159.1-20.6-305.4-41.8-347.7c-19-38.1-79.4-102.5-185.1-102.5
		v-13.2c112.1,0,176.5,69,196.9,109.8c22.2,44.5,32.7,186.1,43.1,352.7c5.4,85.8,27.5,140.5,45.1,171.3c19,33.2,36.9,46.4,37.1,46.6
		L848.1,896.9z"/>
</g>
<g>
	<path class="st0" d="M911.4,708.1h-13.7l0.3-6.9c0-0.4,0-0.7,0.1-1.1c0-0.3,0.1-0.7,0.1-1h6.5v-4.2h0.3v4.2h6.5c0,0.2,0,0.5,0,0.7
		c0,0.6,0.1,1.1,0.1,1.7V708.1z"/>
</g>
<g>
	<path class="st0" d="M983.8,635.9l-6.9-0.3c-0.4,0-0.7,0-1.1-0.1c-0.3,0-0.7-0.1-1-0.1V629h-4.2v-0.2h4.2v-6.5c0.3,0,0.6,0,0.9,0
		c0.4,0,0.9-0.1,1.3-0.1l6.7-0.1V635.9z"/>
</g>
<g>
	<path class="st0" d="M898.1,699c0-34.4-27-62.3-61.3-63.4l-6.4-0.2v-13l6.4-0.2c33.2-1.1,60.1-28,61.2-61.2l0.2-6.4h13l0.2,6.4
		c1.2,34.4,29,61.3,63.4,61.3l0,13.2c-35,0-63.5,28.5-63.5,63.5L898.1,699z M865.6,628.8c17.5,7.7,31.4,21.6,39.1,39
		c7.7-17.3,21.6-31.2,38.9-38.9c-17.4-7.7-31.3-21.7-39-39.1C896.9,607.1,882.9,621.1,865.6,628.8z"/>
</g>
<g>
	<path class="st0" d="M162.2,700.2h-14.5l1.2-7.6c0-0.2,0-0.7,0-1h6.5V687h0.2v4.5h6.5c0,0.2,0,0.3,0,0.5c0,0.5,0.1,1,0.1,1.6V700.2
		z"/>
</g>
<g>
	<path class="st0" d="M224.4,639.2l-7.6-1.2c-0.2,0-0.6,0-1.1,0v-6.5h-4.5v-0.2h4.5v-6.5c0.2,0,0.4,0,0.7,0c0.4,0,0.8-0.1,1.2-0.1
		l6.8-0.2V639.2z"/>
</g>
<g>
	<path class="st0" d="M162.1,691.5l-13.2,0c0,0,0,0,0,0l0,0c0,0,0,0,0,0c0,0,0,0,0,0c0-29-22.7-52.5-51.7-53.4l-6.4-0.2v-13l6.4-0.2
		c28-1,50.7-23.6,51.6-51.6l0.2-6.4h13l0.2,6.4c0.9,29,24.4,51.7,53.4,51.7c0,0,0,0,0,0c0,0,0,0,0,0l0,13.2c0,0,0,0,0,0
		C186.2,638,162.1,662,162.1,691.5C162.1,691.5,162.1,691.5,162.1,691.5z M124.2,631.3c13.7,6.5,24.8,17.6,31.3,31.2
		c6.6-13.5,17.6-24.5,31.1-31.1c-13.7-6.5-24.7-17.6-31.2-31.3C148.9,613.7,137.8,624.7,124.2,631.3z"/>
</g>
<g>
	<rect x="979.7" y="712.7" class="st0" width="28.8" height="8.8"/>
</g>
<g>
	<rect x="1010.4" y="723.5" class="st0" width="8.8" height="28.8"/>
</g>
<g>
	<rect x="1010.4" y="681.9" class="st0" width="8.8" height="28.8"/>
</g>
<g>
	<rect x="1021.2" y="712.7" class="st0" width="28.8" height="8.8"/>
</g>
<g>
	<rect x="179.5" y="325.8" class="st0" width="28.8" height="8.8"/>
</g>
<g>
	<rect x="210.3" y="336.6" class="st0" width="8.8" height="28.8"/>
</g>
<g>
	<rect x="210.3" y="295" class="st0" width="8.8" height="28.8"/>
</g>
<g>
	<rect x="221.1" y="325.8" class="st0" width="28.8" height="8.8"/>
</g>
<g>
	<path class="st0" d="M856.9,313.3h-14.5l1.2-7.6c0-0.2,0-0.7,0-1.1h6.5v-4.5h0.2v4.5h6.5c0,0.2,0,0.3,0,0.5c0,0.5,0.1,1,0.1,1.6
		V313.3z"/>
</g>
<g>
	<path class="st0" d="M919,252.3l-7.6-1.2c-0.2,0-0.6,0-1,0v-6.5h-4.5v-0.2h4.5v-6.5c0.3,0,0.6,0,0.9,0l7.8-0.4V252.3z"/>
</g>
<g>
	<path class="st0" d="M856.8,304.6l-13.2,0c0,0,0,0,0,0l0,0c0,0,0,0,0,0c0,0,0,0,0,0c0-29-22.7-52.5-51.7-53.4l-6.4-0.2v-13l6.4-0.2
		c28-1,50.7-23.6,51.6-51.6l0.2-6.4h13l0.2,6.4c0.9,29,24.4,51.7,53.4,51.7c0,0,0,0,0,0c0,0,0,0,0,0l0,13.2c0,0,0,0,0,0
		C880.8,251.1,856.8,275.1,856.8,304.6C856.8,304.6,856.8,304.6,856.8,304.6z M818.9,244.4c13.7,6.5,24.8,17.6,31.3,31.2
		c6.6-13.5,17.6-24.5,31.1-31.1c-13.7-6.5-24.7-17.6-31.2-31.3C843.5,226.8,832.5,237.8,818.9,244.4z"/>
</g>
<g>
	<rect x="30" y="431.3" class="st0" width="28.8" height="8.8"/>
</g>
<g>
	<rect x="60.8" y="442.1" class="st0" width="8.8" height="28.8"/>
</g>
<g>
	<rect x="60.8" y="400.5" class="st0" width="8.8" height="28.8"/>
</g>
<g>
	<rect x="71.6" y="431.3" class="st0" width="28.8" height="8.8"/>
</g>
</svg>
