<?xml version="1.0" encoding="utf-8"?>
<!-- Generator: Adobe Illustrator 21.0.0, SVG Export Plug-In . SVG Version: 6.00 Build 0)  -->
<svg version="1.1" id="Layer_1" xmlns="http://www.w3.org/2000/svg" xmlns:xlink="http://www.w3.org/1999/xlink" x="0px" y="0px"
	 viewBox="0 0 1080 1080" style="enable-background:new 0 0 1080 1080;" xml:space="preserve">
<style type="text/css">
	.st0{fill:#66482E;}
</style>
<title>GC Icon</title>
<g>
	<rect x="121.6" y="709" class="st0" width="686.4" height="7.9"/>
</g>
<g>
	<rect x="16" y="745.9" class="st0" width="897.6" height="7.9"/>
</g>
<g>
	<path class="st0" d="M333,681.7h-8.7l0.7-4.6c0-0.1,0-0.4,0-0.6h3.9v-2.7h0.1v2.7h3.9c0,0.1,0,0.2,0,0.3c0,0.3,0,0.6,0,0.9V681.7z"
		/>
</g>
<g>
	<path class="st0" d="M370.3,645.1l-4.6-0.7c-0.1,0-0.4,0-0.6,0v-3.9h-2.7v-0.1h2.7v-3.9c0.2,0,0.4,0,0.5,0l4.7-0.2V645.1z"/>
</g>
<g>
	<path class="st0" d="M332.9,676.5l-7.9,0c0,0,0,0,0,0l0,0c0,0,0,0,0,0c0,0,0,0,0,0c0-17.4-13.6-31.5-31.1-32.1l-3.8-0.1v-7.8
		l3.8-0.1c16.8-0.6,30.4-14.2,31-31l0.1-3.8h7.8l0.1,3.8c0.6,17.4,14.7,31,32.1,31.1c0,0,0,0,0,0h0c0,0,0,0,0,0l0,7.9c0,0,0,0,0,0
		C347.4,644.3,332.9,658.7,332.9,676.5C332.9,676.5,332.9,676.5,332.9,676.5z M310.2,640.3c8.2,3.9,14.9,10.5,18.8,18.7
		c3.9-8.1,10.5-14.7,18.7-18.7c-8.2-3.9-14.8-10.6-18.7-18.8C325,629.7,318.4,636.4,310.2,640.3z"/>
</g>
<g>
	<rect x="163.9" y="652.2" class="st0" width="17.3" height="5.3"/>
</g>
<g>
	<rect x="182.3" y="658.7" class="st0" width="5.3" height="17.3"/>
</g>
<g>
	<rect x="182.3" y="633.7" class="st0" width="5.3" height="17.3"/>
</g>
<g>
	<rect x="188.8" y="652.2" class="st0" width="17.3" height="5.3"/>
</g>
<g>
	<rect x="940" y="562.5" class="st0" width="17.3" height="5.3"/>
</g>
<g>
	<rect x="958.5" y="568.9" class="st0" width="5.3" height="17.3"/>
</g>
<g>
	<rect x="958.5" y="544" class="st0" width="5.3" height="17.3"/>
</g>
<g>
	<rect x="965" y="562.5" class="st0" width="17.3" height="5.3"/>
</g>
<g>
	<rect x="243" y="583.6" class="st0" width="17.3" height="5.3"/>
</g>
<g>
	<rect x="261.5" y="590.1" class="st0" width="5.3" height="17.3"/>
</g>
<g>
	<rect x="261.5" y="565.1" class="st0" width="5.3" height="17.3"/>
</g>
<g>
	<rect x="268" y="583.6" class="st0" width="17.3" height="5.3"/>
</g>
<g>
	<path class="st0" d="M882.2,708.1h-8.7l0.7-4.6c0-0.1,0-0.4,0-0.6h3.9v-2.7h0.1v2.7h3.9c0,0.1,0,0.2,0,0.3c0,0.3,0,0.6,0,0.9V708.1
		z"/>
</g>
<g>
	<path class="st0" d="M919.5,671.5l-4.6-0.7c-0.1,0-0.4,0-0.6,0v-3.9h-2.7v-0.1h2.7l0-3.9c0.1,0,0.1,0,0.2,0c0.3,0,0.7-0.1,1.3,0
		l3.7,0.2V671.5z"/>
</g>
<g>
	<path class="st0" d="M882.1,702.9l-7.9,0c0,0,0,0,0,0l0,0c0-17.4-13.6-31.5-31.1-32.1l-3.8-0.1v-7.8l3.8-0.1
		c16.8-0.6,30.4-14.2,31-31l0.1-3.8h7.8l0.1,3.8c0.5,17.5,14.6,31.1,32.1,31.1c0,0,0,0,0,0l0,7.9c0,0,0,0,0,0
		C896.6,670.8,882.1,685.2,882.1,702.9C882.1,702.9,882.1,702.9,882.1,702.9C882.1,702.9,882.1,702.9,882.1,702.9z M859.3,666.7
		c8.3,3.9,14.9,10.6,18.8,18.8c3.9-8.1,10.5-14.7,18.6-18.6c-8.2-3.9-14.9-10.6-18.8-18.9C874.1,656.1,867.5,662.7,859.3,666.7z"/>
</g>
<g>
	
		<rect x="379" y="315.9" transform="matrix(0.9402 -0.3406 0.3406 0.9402 -150.7005 160.9352)" class="st0" width="7.9" height="387.5"/>
</g>
<g>
	
		<rect x="612.9" y="521.5" transform="matrix(0.7716 -0.6361 0.6361 0.7716 -136.4519 670.9443)" class="st0" width="506.4" height="7.9"/>
</g>
<g>
	
		<rect x="463.5" y="326.5" transform="matrix(0.9944 -0.1055 0.1055 0.9944 -50.313 52.1046)" class="st0" width="7.9" height="350.4"/>
</g>
<g>
	
		<rect x="379.8" y="495.1" transform="matrix(7.677375e-02 -0.997 0.997 7.677375e-02 11.9491 1011.0847)" class="st0" width="344.2" height="7.9"/>
</g>
<g>
	
		<rect x="472.1" y="503.1" transform="matrix(0.3866 -0.9222 0.9222 0.3866 -69.1227 910.0993)" class="st0" width="355" height="7.9"/>
</g>
<g>
	
		<rect x="552.1" y="513.6" transform="matrix(0.6454 -0.7639 0.7639 0.6454 -128.4669 758.4312)" class="st0" width="400.9" height="7.9"/>
</g>
</svg>
